<?xml version="1.0" encoding="utf-8"?>
<!-- Generator: Adobe Illustrator 26.0.3, SVG Export Plug-In . SVG Version: 6.00 Build 0)  -->
<svg version="1.1" xmlns="http://www.w3.org/2000/svg" xmlns:xlink="http://www.w3.org/1999/xlink" x="0px" y="0px"
	 viewBox="0 0 500 500" style="enable-background:new 0 0 500 500;" xml:space="preserve">
<style type="text/css">
	.st0{fill:#422F7E;}
	.st1{fill:none;stroke:#263238;stroke-miterlimit:10;}
	.st2{fill:#FFFFFF;stroke:#263238;stroke-miterlimit:10;}
	.st3{fill:#422F7E;stroke:#263238;stroke-miterlimit:10;}
	.st4{fill:#263238;stroke:#263238;stroke-miterlimit:10;}
	.st5{fill:none;stroke:#263238;stroke-width:2;stroke-miterlimit:10;}
	.st6{fill:#5DC8B2;stroke:#263238;stroke-miterlimit:10;}
	.st7{fill:#FFFFFF;stroke:#263238;stroke-linecap:round;stroke-linejoin:round;stroke-miterlimit:10;}
	.st8{fill:#5DC8B2;stroke:#263238;stroke-linecap:round;stroke-linejoin:round;stroke-miterlimit:10;}
	.st9{fill:none;stroke:#263238;stroke-linecap:round;stroke-linejoin:round;stroke-miterlimit:10;}
	.st10{fill:#D1D1D1;}
	.st11{fill:none;stroke:#263238;stroke-miterlimit:10;stroke-dasharray:5.0259,5.0259;}
	.st12{fill:#263238;}
	.st13{fill:none;stroke:#263238;stroke-miterlimit:10;stroke-dasharray:5.1046,5.1046;}
	.st14{fill:none;stroke:#263238;stroke-miterlimit:10;stroke-dasharray:5.0474,5.0474;}
	.st15{fill:none;stroke:#263238;stroke-miterlimit:10;stroke-dasharray:4.9072,4.9072;}
	.st16{fill:#FFFFFF;stroke:#263238;stroke-width:5;stroke-linecap:round;stroke-miterlimit:10;}
	.st17{fill:#FFFFFF;}
</style>
<g id="Background_Simple">
</g>
<g id="Plant">
	<g>
		<g>
			<path class="st0" d="M138.88,359.37c-2.96,1.29-10.2,1.13-10.2,1.13c-0.08,0,1.56-4.74,1.69-5.03c1.59-3.32,6.61-8.81,10.7-8.26
				c2.94,0.4,4.58,3.34,3.92,6.12C144.31,356.16,141.41,358.27,138.88,359.37z"/>
			<path class="st0" d="M136.39,380.34c-3.07,0.45-9.53-1.43-10.04-1.58c-1.02,3.62-2.36,7.25-3.92,10.84
				c-0.89,2.06-1.85,4.1-2.84,6.14c0.59-0.86,1.12-1.63,1.21-1.73c2.41-2.79,8.7-6.75,12.5-5.14c2.74,1.16,3.54,4.44,2.16,6.93
				c-1.4,2.55-4.76,3.81-7.48,4.21c-2.76,0.4-8.3-1.08-9.76-1.5c-0.39,0.78-0.76,1.56-1.15,2.34c-1.87,3.73-3.75,7.43-5.49,11.13
				c-0.61,1.3-1.17,2.61-1.73,3.91c0.52-0.77,0.97-1.41,1.05-1.5c2.41-2.78,8.7-6.75,12.5-5.14c2.74,1.16,3.54,4.44,2.16,6.93
				c-1.4,2.55-4.76,3.81-7.48,4.21c-2.64,0.38-7.76-0.94-9.5-1.42c-0.53,1.35-1.07,2.7-1.53,4.04c-0.29,0.92-0.64,1.78-0.87,2.72
				c-0.26,0.92-0.51,1.84-0.77,2.74c-0.42,1.76-0.87,3.58-1.24,5.31c-0.27,1.2-0.5,2.35-0.73,3.51c0.59-1.3,1.81-3.83,1.94-4.03
				c1.96-3.12,7.58-7.99,11.58-6.97c2.88,0.73,4.17,3.85,3.19,6.53c-1,2.73-4.13,4.49-6.76,5.3c-2.9,0.89-9.31,0.08-10.11-0.03
				c-0.38,1.92-0.74,3.78-1.05,5.55c-0.17,0.94-0.31,1.81-0.45,2.7h-2.55c0.19-1.02,0.39-2.06,0.6-3.15
				c0.38-1.95,0.83-4.02,1.31-6.14c-0.48-0.19-3.22-1.3-5.64-2.65c-2.11,2.29-7.52,4.96-8.22,5.3c0.74,1.81,1.47,3.56,2.19,5.21
				c0.22,0.5,0.42,0.96,0.64,1.43h-2.69c-0.07-0.16-0.13-0.32-0.2-0.48c-0.76-1.83-1.53-3.81-2.3-5.85
				c-0.78,0.16-7.12,1.45-10.08,0.78c-2.68-0.61-5.93-2.12-7.13-4.78c-1.18-2.6-0.12-5.8,2.69-6.75c3.91-1.31,9.88,3.13,12.06,6.09
				c0.13,0.17,1.32,2.23,2.04,3.54c-0.31-0.83-0.62-1.64-0.93-2.5c-0.62-1.7-1.2-3.42-1.82-5.26c-0.27-0.9-0.54-1.81-0.82-2.73
				c-0.29-0.91-0.48-1.9-0.73-2.86c-0.53-2.23-0.96-4.52-1.34-6.84c-1.49,0.54-6.81,2.39-9.57,2.2c-2.74-0.19-6.19-1.2-7.77-3.64
				c-1.56-2.39-1-5.71,1.64-7.08c3.67-1.89,10.24,1.6,12.85,4.19c0.16,0.16,1.83,2.24,2.72,3.39c-0.22-1.39-0.44-2.78-0.62-4.2
				c-0.51-4.09-0.89-8.24-1.3-12.39c-0.12-1.27-0.26-2.53-0.39-3.8c-0.53,0.2-6.81,2.54-9.89,2.32c-2.74-0.19-6.19-1.2-7.77-3.64
				c-1.56-2.39-1-5.71,1.64-7.08c3.67-1.89,10.24,1.59,12.85,4.19c0.2,0.2,2.59,3.18,3.16,3.97c-0.29-2.79-0.61-5.56-1.04-8.28
				c-0.58-3.76-1.36-7.41-2.38-10.89c-0.25,0.09-6.79,2.56-9.95,2.34c-2.74-0.19-6.19-1.2-7.78-3.64c-1.56-2.39-1-5.71,1.64-7.08
				c3.67-1.89,10.24,1.59,12.85,4.19c0.2,0.2,2.77,3.42,3.2,4.04c-0.06-0.21-0.1-0.43-0.16-0.63c-1.13-3.7-2.69-7.15-4.31-10.31
				c-0.94-1.84-1.94-3.54-2.95-5.17c-1.17,0.58-6.55,3.2-9.42,3.31c-2.75,0.11-6.28-0.51-8.13-2.76c-1.81-2.2-1.62-5.57,0.85-7.21
				c3.44-2.28,10.35,0.46,13.23,2.76c0.16,0.12,1.61,1.57,2.65,2.64c-0.47-0.73-0.93-1.49-1.4-2.18c-1.73-2.6-3.47-4.87-5.02-6.87
				c-0.89-1.13-1.73-2.14-2.51-3.07c-1.45-0.03-7.28-0.2-9.84-1.4c-2.49-1.17-5.34-3.35-5.94-6.2c-0.59-2.79,1.13-5.69,4.08-6.01
				c4.1-0.44,8.97,5.18,10.47,8.54c0.13,0.29,1.63,5.07,1.56,5.07c0,0-0.07,0-0.09,0c0.78,0.88,1.6,1.83,2.48,2.9
				c1.6,1.97,3.4,4.21,5.19,6.78c1.79,2.57,3.67,5.4,5.38,8.57c1.72,3.17,3.36,6.6,4.59,10.34c0.01,0.04,0.02,0.09,0.04,0.13
				c-0.02-1.21,0.03-4.59,0.07-4.85c0.47-3.65,3.53-10.43,7.59-11.18c2.92-0.54,5.4,1.75,5.63,4.59c0.24,2.9-1.87,5.81-3.92,7.64
				c-2.31,2.07-8.74,4.07-9.25,4.23c1.15,3.58,2.03,7.34,2.71,11.2c0.39,2.21,0.72,4.44,1.02,6.69c0.02-1.05,0.04-1.98,0.05-2.11
				c0.47-3.65,3.53-10.43,7.59-11.18c2.92-0.54,5.4,1.75,5.63,4.59c0.24,2.9-1.87,5.81-3.92,7.64c-2.08,1.86-7.52,3.68-8.97,4.14
				c0.11,0.86,0.22,1.72,0.32,2.59c0.49,4.14,0.97,8.27,1.56,12.31c0.21,1.42,0.46,2.82,0.72,4.21c0.01-0.93,0.03-1.71,0.05-1.83
				c0.47-3.65,3.53-10.43,7.59-11.18c2.92-0.54,5.4,1.75,5.63,4.59c0.24,2.9-1.87,5.81-3.92,7.64c-1.99,1.77-6.99,3.5-8.71,4.05
				c0.3,1.42,0.6,2.85,0.96,4.21c0.26,0.93,0.45,1.84,0.77,2.75c0.29,0.91,0.59,1.82,0.88,2.71c0.62,1.7,1.25,3.46,1.89,5.11
				c0.44,1.15,0.88,2.24,1.32,3.33c-0.22-1.41-0.6-4.19-0.61-4.43c-0.06-2.45,0.81-6.42,2.54-9.22c-0.01-0.36,0.01-0.72,0.07-1.08
				c0.45-2.81,3.1-4.91,5.97-4.14c3.99,1.06,6.51,8.06,6.7,11.73c0.01,0.22-0.13,2.58-0.24,4.08c0.2-0.87,0.38-1.71,0.6-2.6
				c0.42-1.76,0.89-3.51,1.38-5.39c0.27-0.9,0.55-1.81,0.83-2.73c0.26-0.92,0.64-1.85,0.96-2.79c0.79-2.15,1.69-4.3,2.65-6.44
				c-1.54-0.37-7-1.76-9.19-3.44c-2.18-1.67-4.5-4.41-4.48-7.33c0.02-2.85,2.32-5.32,5.27-5c4.1,0.45,7.66,6.98,8.4,10.58
				c0.05,0.23,0.29,2.87,0.39,4.33c0.59-1.28,1.16-2.57,1.8-3.84c1.83-3.69,3.8-7.37,5.75-11.05c0.6-1.13,1.18-2.26,1.77-3.38
				c-0.55-0.13-7.08-1.64-9.53-3.52c-2.18-1.67-4.5-4.41-4.48-7.33c0.02-2.85,2.32-5.32,5.27-5c4.1,0.44,7.66,6.98,8.4,10.58
				c0.06,0.27,0.4,4.08,0.44,5.06c1.29-2.49,2.56-4.98,3.7-7.48c1.59-3.45,2.95-6.93,4.03-10.4c-0.26-0.06-7.07-1.61-9.59-3.54
				c-2.18-1.67-4.5-4.41-4.48-7.33c0.02-2.85,2.32-5.32,5.27-5c4.1,0.45,7.66,6.98,8.4,10.58c0.06,0.28,0.43,4.38,0.44,5.13
				c0.06-0.21,0.15-0.41,0.21-0.62c1.1-3.72,1.7-7.45,2.09-10.98c0.23-2.05,0.34-4.02,0.39-5.94c-1.3-0.16-7.23-0.95-9.68-2.43
				c-2.35-1.42-4.96-3.89-5.25-6.79c-0.29-2.84,1.72-5.54,4.69-5.55c4.12-0.01,8.38,6.09,9.51,9.6c0.06,0.19,0.48,2.2,0.76,3.66
				c0.01-0.87,0.04-1.76,0.04-2.59c-0.01-3.12-0.2-5.98-0.4-8.5c-0.12-1.44-0.26-2.73-0.41-3.94c-1.19-0.82-5.96-4.19-7.43-6.59
				c-1.43-2.35-2.6-5.74-1.53-8.45c1.05-2.65,4.08-4.12,6.72-2.76c3.66,1.89,4.63,9.27,4.02,12.9c-0.05,0.31-1.44,5.13-1.5,5.09
				c0,0-0.06-0.04-0.07-0.05c0.16,1.16,0.32,2.41,0.47,3.78c0.25,2.53,0.51,5.39,0.58,8.52c0.08,3.13,0.08,6.53-0.24,10.11
				c-0.32,3.59-0.84,7.35-1.87,11.16c-0.01,0.04-0.03,0.09-0.04,0.13c0.65-1.02,2.56-3.81,2.73-4.01c2.41-2.79,8.7-6.75,12.5-5.14
				c2.73,1.16,3.54,4.44,2.16,6.93C142.46,378.68,139.11,379.94,136.39,380.34z"/>
			<path class="st0" d="M65.66,360.96c-0.06,0.04-1.32-4.81-1.36-5.13c-0.51-3.65,0.66-10.99,4.37-12.79
				c2.68-1.29,5.67,0.26,6.64,2.94c1,2.74-0.27,6.09-1.76,8.4C71.79,357.1,65.66,360.96,65.66,360.96z"/>
		</g>
	</g>
</g>
<g id="Character">
	<g>
		<path class="st1" d="M304.89,287.36c0,0-3.44-0.63-5.32-2.66c-1.88-2.03-3.29-6.57-4.85-5.32c-1.56,1.25-3.29,4.23-2.19,7.98
			c1.1,3.76,5.63,7.98,5.63,7.98l11.58-6.73L304.89,287.36z"/>
		<polygon class="st2" points="335.09,361.38 342.9,360.52 333.64,353.3 		"/>
		<g>
			<path class="st2" d="M330.71,287.05l0.31,6.1c0,0,6.26,25.51,5.95,26.45s0.47,27.85-0.16,30.98c-0.63,3.13-1.72,10.8-1.72,10.8
				s-8.61-0.31-12.52-2.35c-3.91-2.03-9.08-6.57-9.08-6.57l3.13-12.21c0,0-2.97-1.88-4.38-5.01c-1.41-3.13-1.88-6.26-1.88-6.26
				l-2.5-0.78c0,0-3.29,1.72-4.85,0.16c-1.56-1.56-0.31-3.76,0.16-4.85c0.47-1.1,2.19-5.01,2.19-5.01s-1.88,2.82-3.76,2.5
				c-1.88-0.31-2.35-0.16-2.5-1.41s0.78-4.69,0.78-4.69s-3.6,1.41-5.01,0c-1.41-1.41-0.94-2.97-0.78-3.44
				c0.16-0.47,4.38-10.01,4.38-10.01s-8.29,1.88-8.92,1.88c-0.63,0-2.66-0.47-3.29-2.66c-0.63-2.19,6.26-4.85,12.05-9.08
				c5.79-4.23,12.21-5.95,14.87-5.95C315.84,285.64,329.46,284.7,330.71,287.05z"/>
			<path class="st1" d="M326.95,293c0.63,0-18.47,2.03-20.03,2.5c-1.56,0.47-7.35,5.01-7.35,5.01"/>
			<path class="st1" d="M328.2,301.29c0,0-19.4,3.29-21.13,3.91c-1.72,0.63-7.2,9.7-7.2,9.7"/>
			<path class="st1" d="M330.24,309.74c0,0-17.68,4.07-19.4,4.85c-1.72,0.78-4.38,3.13-4.38,3.13"/>
		</g>
		<polyline class="st1" points="327.11,323.51 324.6,321.63 314.28,321.95 308.8,326.95 		"/>
		<path class="st2" d="M342.9,360.52l-1.81,7.45c0,0-4.29,1.13-12.87-2.26c-8.58-3.39-17.16-9.71-17.16-9.71l0.68-5.42
			C311.73,350.59,326.64,361.43,342.9,360.52z"/>
		<path class="st3" d="M310.6,354.2c0,0,11.29,7.23,19.42,9.71c8.13,2.48,16.71,2.71,16.71,2.71s-9.94,45.61-13.1,52.61
			c-3.16,7-8.26,27.1-8.26,27.1h-57c0,0,33.87-65.49,35-70.46C304.51,370.91,310.6,354.2,310.6,354.2z"/>
		<g>
			<path class="st2" d="M287.47,184.96c0,0,10.68,24.83,9.34,28.03c-1.33,3.2-6.67,8.28-4.27,11.75
				c2.4,3.47,16.29,14.95,13.62,20.82c-2.67,5.87-9.61,6.14-9.61,6.14s1.33,7.74-0.53,9.61c-1.87,1.87-1.87,1.87-1.87,1.87
				s0,4-1.33,5.87c-1.33,1.87-4.81,3.47-4.81,3.47s6.67,9.88,5.34,13.08c-1.33,3.2-16.55,8.28-22.96,9.88
				c-6.41,1.6-17.89-0.53-17.89-0.53l-3.2,16.02l-60.6-35.51l9.34-23.76c0,0-16.02-14.42-16.82-36.04
				c-0.8-21.63,5.87-41.92,17.89-49.12c12.01-7.21,28.3-5.87,28.3-5.87s9.08-10.41,23.76-5.34
				C265.84,160.4,287.47,184.96,287.47,184.96z"/>
			<path class="st4" d="M292.27,212.73c0,0,0,2.94-3.47,1.6c-3.47-1.33-5.34-3.74-8.01-3.2c-2.67,0.53-6.14,1.87-4-1.87
				c2.14-3.74,7.21-2.14,10.15-0.8S292.27,212.73,292.27,212.73z"/>
			<path class="st5" d="M285.33,223.14c-1.09,5.65-0.86,10.44,0.51,10.7c1.38,0.27,3.38-4.09,4.47-9.74
				c1.09-5.65,0.86-10.44-0.51-10.7C288.43,213.13,286.42,217.49,285.33,223.14z"/>
			<line class="st5" x1="285.6" y1="221" x2="234.6" y2="217.53"/>
			<path class="st4" d="M293.07,254.64c0,0,5.07-1.07,6.14,4.27c1.07,5.34-3.74,7.48-5.07,7.48s-3.74-1.6-8.01,0.27
				c-4.27,1.87-8.01,4.27-8.01,8.81s1.6,7.74,5.07,7.48c3.47-0.27,5.87-6.67,7.74-5.87c1.87,0.8,6.67,8.28,3.47,13.35
				c-3.2,5.07-24.56,14.68-31.5,14.42c-6.94-0.27-32.84-22.69-36.31-30.97c-3.47-8.28,1.07-11.75,1.87-14.15
				c0.8-2.4,8.81-22.69,8.81-28.57c0-5.87-3.74-19.22-11.21-19.76c-7.48-0.53-12.01,15.49-9.61,21.36c2.4,5.87,6.14,8.54,6.14,8.54
				s1.6,17.09-2.94,20.02c-4.54,2.94-16.55,6.67-22.16,6.94c-5.61,0.27-7.74,1.07-10.68-4.54c-2.94-5.61,2.14-8.01,0.53-11.21
				s-14.68-18.96-16.02-35.78c-1.33-16.82,2.94-30.44,10.15-41.12c7.21-10.68,22.69-20.56,27.77-21.36
				c5.07-0.8,10.95-2.94,10.95-2.94s-5.61-2.4-1.33-6.14c4.27-3.74,12.82-5.61,26.7-1.07s19.22,9.88,19.22,9.88s-0.8-7.21,7.21-4
				c8.01,3.2,21.89,17.62,20.02,26.97c-1.87,9.34-6.14,9.08-12.01,7.21s-14.95-5.87-18.96-5.34c-4,0.53-6.67,0.8,0.53,6.94
				c7.21,6.14,17.09,12.55,11.75,15.49c-5.34,2.94-20.29,11.21-22.16,17.35c-1.87,6.14,6.41,49.12,9.34,54.2
				c2.94,5.07,8.54,6.67,12.01,2.94c3.47-3.74,6.41-13.35,12.28-17.62C290.67,253.84,293.07,254.64,293.07,254.64z"/>
			<path class="st1" d="M222.59,241.29c0,0,6.14,1.6,7.21,1.6"/>
		</g>
		<path class="st6" d="M257.66,319.25c0,0,11.92,9.68,13.6,13.78c1.68,4.1,1.3,11.92,1.3,12.66c0,0.74,9.13,7.64,12.29,16.95
			c3.17,9.31,3.35,20.86,3.35,20.86l-20.67-37.62l-11.73-23.84L257.66,319.25z"/>
		<path class="st2" d="M207.91,279.21c0,0,52.33,29.1,51.53,32.84c-0.8,3.74-3.74,14.68-3.74,14.68s-41.12-32.57-48.59-36.58
			c-7.48-4-23.23-9.88-23.23-9.88s2.94-7.74,3.74-8.54C188.42,270.93,202.03,276.8,207.91,279.21z"/>
		<path class="st3" d="M253.29,316.32l41.92,79.83l30.17,50.19H144.63c0,0,1.33-41.65,4-68.08c2.67-26.43,22.16-77.96,26.16-83.3
			c4-5.34,5.07-8.01,5.07-8.01s0.8-8.54,3.74-9.88S215.65,285.61,253.29,316.32z"/>
	</g>
</g>
<g id="Bubble">
	<g>
		<circle class="st4" cx="104.41" cy="122.41" r="71.19"/>
		<ellipse class="st4" cx="154.14" cy="178.61" rx="9.88" ry="9.54"/>
		<path class="st4" d="M161.69,190.81c0,3.8,3.19,6.88,7.12,6.88c3.93,0,7.12-3.08,7.12-6.88s-3.19-6.88-7.12-6.88
			C164.88,183.93,161.69,187.01,161.69,190.81z"/>
	</g>
	<g>
		<circle class="st7" cx="107.13" cy="117.64" r="71.19"/>
		<ellipse class="st7" cx="156.86" cy="173.84" rx="9.88" ry="9.54"/>
		<path class="st7" d="M164.41,186.04c0,3.8,3.19,6.88,7.12,6.88c3.93,0,7.12-3.08,7.12-6.88c0-3.8-3.19-6.88-7.12-6.88
			C167.6,179.16,164.41,182.24,164.41,186.04z"/>
	</g>
</g>
<g id="Light_Bulb">
	<g>
		<g>
			<path class="st8" d="M76.76,107.71c0-17.31,14.63-31.21,32.2-30c14.65,1.01,26.59,12.76,27.83,27.39c0.7,8.33-2,16.02-6.86,21.84
				c-4.43,5.31-6.85,12.01-6.85,18.92v4.12H90.57v-4.12c0-6.91-2.41-13.6-6.84-18.9C79.38,121.75,76.76,115.04,76.76,107.71z"/>
			
				<rect x="90.57" y="149.99" transform="matrix(-1 -1.224647e-16 1.224647e-16 -1 213.6505 308.0294)" class="st7" width="32.51" height="8.04"/>
			<path class="st7" d="M95.3,166.1h23.06c2.61,0,4.73-2.12,4.73-4.73v-3.32H90.57v3.32C90.57,163.98,92.69,166.1,95.3,166.1z"/>
			<path class="st4" d="M101.08,174.13h11.48c3.54,0,6.41-2.87,6.41-6.41v-1.63h-24.3v1.63C94.67,171.26,97.54,174.13,101.08,174.13
				z"/>
		</g>
		<g>
			<line class="st9" x1="72.49" y1="107.87" x2="58.71" y2="107.87"/>
			<line class="st9" x1="156.23" y1="107.87" x2="142.28" y2="107.87"/>
			<line class="st9" x1="107.47" y1="72.92" x2="107.47" y2="59.11"/>
			<line class="st9" x1="82.5" y1="82.9" x2="72.99" y2="73.39"/>
			<line class="st9" x1="141.95" y1="142.34" x2="132.3" y2="132.7"/>
			<line class="st9" x1="132.71" y1="82.62" x2="141.95" y2="73.39"/>
			<line class="st9" x1="72.99" y1="142.34" x2="82.19" y2="133.15"/>
		</g>
	</g>
</g>
<g id="Gears">
	<polygon class="st2" points="346.73,365.85 339.28,362.92 338.83,366.53 	"/>
	<path class="st10" d="M213.41,177.23v-3.12h3.58c0.17-1.78,0.65-3.47,1.35-5.02l-3.1-1.79l1.56-2.7l3.11,1.79
		c1.02-1.42,2.26-2.66,3.68-3.68l-1.79-3.11l2.7-1.56l1.79,3.1c1.56-0.71,3.25-1.18,5.02-1.35v-3.58h3.12v3.58
		c1.78,0.17,3.47,0.65,5.02,1.35l1.79-3.1l2.7,1.56l-1.79,3.11c1.42,1.02,2.66,2.26,3.68,3.68l3.11-1.79l1.56,2.7l-3.1,1.79
		c0.71,1.56,1.18,3.25,1.35,5.02h3.58v3.12h-3.58c-0.17,1.78-0.65,3.47-1.35,5.02l3.1,1.79l-1.56,2.7l-3.11-1.79
		c-1.02,1.42-2.26,2.66-3.68,3.68l1.79,3.11l-2.7,1.56l-1.79-3.1c-1.56,0.71-3.25,1.18-5.02,1.35v3.58h-3.12v-3.58
		c-1.78-0.17-3.47-0.65-5.02-1.35l-1.79,3.1l-2.7-1.56l1.79-3.11c-1.42-1.02-2.66-2.26-3.68-3.68l-3.11,1.79l-1.56-2.7l3.1-1.79
		c-0.71-1.56-1.18-3.25-1.35-5.02H213.41z M232.86,163.47c-6.38,0-11.6,4.89-12.15,11.13h9.84c0.41-0.87,1.28-1.48,2.31-1.48
		c0.13,0,0.25,0.02,0.37,0.04l5.12-8.37C236.7,163.95,234.84,163.47,232.86,163.47z M245.07,175.67c0-4.13-2.06-7.77-5.2-9.98
		l-5.09,8.32c0.39,0.45,0.63,1.02,0.63,1.66c0,0.58-0.2,1.1-0.52,1.53l4.99,8.44C243.02,183.44,245.07,179.8,245.07,175.67z
		 M232.86,187.88c1.98,0,3.85-0.48,5.51-1.32l-4.96-8.39c-0.18,0.04-0.36,0.06-0.54,0.06c-1.17,0-2.14-0.79-2.44-1.86h-9.73
		C221.06,182.78,226.36,187.88,232.86,187.88z"/>
	<path class="st10" d="M205.15,218.05l-3.12,0l0-3.58c-1.78-0.17-3.47-0.65-5.02-1.36l-1.79,3.1l-2.7-1.56l1.8-3.11
		c-1.42-1.02-2.66-2.26-3.67-3.68l-3.11,1.79l-1.56-2.7l3.11-1.79c-0.71-1.56-1.18-3.25-1.35-5.03l-3.58,0l0-3.12l3.58,0
		c0.17-1.78,0.65-3.47,1.36-5.02l-3.1-1.79l1.56-2.7l3.11,1.8c1.02-1.42,2.26-2.66,3.68-3.67l-1.79-3.11l2.7-1.56l1.79,3.11
		c1.56-0.71,3.25-1.18,5.03-1.35l0-3.58l3.12,0l0,3.58c1.78,0.17,3.47,0.65,5.02,1.36l1.79-3.1l2.7,1.56l-1.8,3.11
		c1.42,1.02,2.66,2.26,3.67,3.68l3.11-1.79l1.56,2.7l-3.11,1.79c0.71,1.56,1.18,3.25,1.35,5.03l3.58,0l0,3.12l-3.58,0
		c-0.17,1.78-0.65,3.47-1.36,5.02l3.1,1.79l-1.56,2.7l-3.11-1.8c-1.02,1.42-2.26,2.66-3.68,3.67l1.79,3.11l-2.7,1.56l-1.79-3.11
		c-1.56,0.71-3.25,1.18-5.03,1.35L205.15,218.05z M191.4,198.59c0,6.38,4.89,11.61,11.12,12.16l0.01-9.84
		c-0.87-0.41-1.48-1.28-1.47-2.31c0-0.13,0.02-0.25,0.04-0.37l-8.37-5.13C191.88,194.75,191.4,196.61,191.4,198.59z M203.61,186.39
		c-4.13,0-7.77,2.05-9.99,5.19l8.32,5.09c0.45-0.39,1.02-0.63,1.66-0.63c0.58,0,1.1,0.2,1.53,0.52l8.45-4.99
		C211.37,188.45,207.73,186.4,203.61,186.39z M215.81,198.6c0-1.98-0.48-3.85-1.32-5.51l-8.39,4.96c0.04,0.18,0.06,0.36,0.06,0.54
		c0,1.17-0.79,2.14-1.86,2.44l-0.01,9.73C210.7,210.41,215.8,205.11,215.81,198.6z"/>
</g>
<g id="Arrows">
	<g>
		<g>
			<path class="st1" d="M473.98,188.15c0,0-0.86,0-2.49,0.16"/>
			<path class="st11" d="M466.51,189c-9.3,1.66-26.58,6.55-47.72,20.94c-25.81,17.57-70.21,17.88-92.88,15.56"/>
			<path class="st1" d="M323.41,225.23c-0.87-0.1-1.69-0.21-2.48-0.32"/>
			<g>
				<polygon class="st12" points="323.26,220.16 313.89,223.57 321.52,229.98 				"/>
			</g>
		</g>
	</g>
	<g>
		<g>
			<path class="st1" d="M474.66,75.74c0,0-0.66,0.57-1.89,1.63"/>
			<path class="st13" d="M468.9,80.69c-19.46,16.61-83.29,70.18-114.82,85.65c-16.5,8.1-27.45,12.63-34.54,15.17"/>
			<path class="st1" d="M317.12,182.36c-0.86,0.29-1.65,0.54-2.38,0.77"/>
			<g>
				<polygon class="st12" points="314.96,177.84 307.75,184.74 317.33,187.53 				"/>
			</g>
		</g>
	</g>
	<g>
		<g>
			<path class="st1" d="M475.53,360.44c0,0-0.87,0.08-2.49,0.16"/>
			<path class="st14" d="M468,360.74c-16.03,0.12-54.93-2.2-90.07-24.76c-21.89-14.05-35.24-50.87-47.17-69.19"/>
			<path class="st1" d="M329.33,264.68c-0.5-0.71-0.99-1.37-1.49-2.01"/>
			<g>
				<polygon class="st12" points="332.33,260.36 322.74,257.63 325.17,267.3 				"/>
			</g>
		</g>
	</g>
	<g>
		<g>
			<path class="st1" d="M471.93,284.88c0,0-0.86,0.13-2.48,0.28"/>
			<path class="st15" d="M464.56,285.51c-15,0.76-50.85-0.01-88.68-19.7c-12.95-6.74-22.78-11.9-29.47-15.44"/>
			<path class="st1" d="M344.23,249.22c-0.79-0.42-1.53-0.81-2.21-1.17"/>
			<g>
				<polygon class="st12" points="345.65,244.29 335.68,244.69 341.01,253.12 				"/>
			</g>
		</g>
	</g>
</g>
<g id="Chart">
	<g>
		
			<rect x="418.98" y="307.21" transform="matrix(-1 -1.224647e-16 1.224647e-16 -1 844.5705 637.5703)" class="st4" width="6.61" height="23.15"/>
		
			<rect x="407.41" y="294.74" transform="matrix(-1 -1.224647e-16 1.224647e-16 -1 821.4247 625.0932)" class="st8" width="6.61" height="35.62"/>
		
			<rect x="395.83" y="314.18" transform="matrix(-1 -1.224647e-16 1.224647e-16 -1 798.2788 644.5343)" class="st4" width="6.61" height="16.18"/>
		
			<rect x="384.26" y="296.48" transform="matrix(-1 -1.224647e-16 1.224647e-16 -1 775.1329 626.8342)" class="st8" width="6.61" height="33.88"/>
		<g>
			<line class="st2" x1="433.34" y1="293.8" x2="428.7" y2="293.8"/>
			<line class="st2" x1="433.34" y1="299.02" x2="428.7" y2="299.02"/>
			<line class="st2" x1="433.34" y1="304.24" x2="428.7" y2="304.24"/>
			<line class="st2" x1="433.34" y1="309.47" x2="428.7" y2="309.47"/>
			<line class="st2" x1="433.34" y1="314.69" x2="428.7" y2="314.69"/>
			<line class="st2" x1="433.34" y1="319.91" x2="428.7" y2="319.91"/>
			<line class="st2" x1="433.34" y1="325.14" x2="428.7" y2="325.14"/>
			<line class="st2" x1="433.34" y1="330.36" x2="428.7" y2="330.36"/>
		</g>
		<g>
			<g>
				<polyline class="st1" points="424.05,301.34 409.54,285.96 399.1,300.76 388.38,288.23 				"/>
				<g>
					<polygon class="st12" points="393.12,286.09 383.72,282.77 385.54,292.57 					"/>
				</g>
			</g>
		</g>
	</g>
</g>
<g id="Document">
	<g>
		<g>
			
				<rect x="432.89" y="224.34" transform="matrix(-1 -1.224647e-16 1.224647e-16 -1 906.9238 500.6734)" class="st4" width="41.14" height="51.99"/>
			
				<rect x="430.41" y="222.31" transform="matrix(-1 -1.224647e-16 1.224647e-16 -1 901.97 496.6203)" class="st8" width="41.14" height="51.99"/>
			<line class="st2" x1="463.87" y1="237.23" x2="438.55" y2="237.23"/>
			<line class="st2" x1="463.87" y1="245.37" x2="438.55" y2="245.37"/>
			<line class="st2" x1="463.87" y1="253.51" x2="438.55" y2="253.51"/>
			<line class="st2" x1="463.87" y1="261.65" x2="438.55" y2="261.65"/>
		</g>
		<g>
			<path class="st4" d="M433.67,220.61c7.34,0,13.29,5.95,13.29,13.29c0,7.34-5.95,13.29-13.29,13.29
				c-7.34,0-13.29-5.95-13.29-13.29C420.38,226.56,426.33,220.61,433.67,220.61z M433.67,244.34c5.77,0,10.44-4.67,10.44-10.44
				c0-5.77-4.67-10.44-10.44-10.44c-5.77,0-10.44,4.67-10.44,10.44C423.23,239.66,427.9,244.34,433.67,244.34z"/>
			<line class="st16" x1="422.64" y1="239.75" x2="402.37" y2="249.66"/>
		</g>
	</g>
</g>
<g id="Speech_bubbles">
	<g>
		<g>
			<path class="st4" d="M388,178.27h-32.69c-2.9,0-5.26,2.35-5.26,5.26v19.78c0,2.9,2.35,5.26,5.26,5.26h2.88l6.17,9.39l0.72-9.39
				H388c2.9,0,5.26-2.35,5.26-5.26v-19.78C393.25,180.62,390.9,178.27,388,178.27z"/>
			<g>
				<path class="st17" d="M378.29,193.18c0-1.42,1.15-2.57,2.57-2.57c1.42,0,2.57,1.15,2.57,2.57s-1.15,2.57-2.57,2.57
					C379.45,195.76,378.29,194.6,378.29,193.18z"/>
				<circle class="st17" cx="370.26" cy="193.18" r="2.57"/>
				<path class="st17" d="M357.07,193.18c0-1.42,1.15-2.57,2.57-2.57c1.42,0,2.57,1.15,2.57,2.57s-1.15,2.57-2.57,2.57
					C358.23,195.76,357.07,194.6,357.07,193.18z"/>
			</g>
		</g>
		<path class="st2" d="M381.94,165.4h32.69c2.9,0,5.26,2.35,5.26,5.26v19.78c0,2.9-2.35,5.26-5.26,5.26h-2.88l-6.17,9.38l-0.72-9.38
			h-22.9c-2.9,0-5.26-2.35-5.26-5.26v-19.78C376.68,167.76,379.04,165.4,381.94,165.4z"/>
		<g>
			<path class="st4" d="M406.32,181.29c0-1.42,1.15-2.57,2.57-2.57c1.42,0,2.57,1.15,2.57,2.57c0,1.42-1.15,2.57-2.57,2.57
				C407.47,183.86,406.32,182.71,406.32,181.29z"/>
			<path class="st4" d="M395.71,181.29c0-1.42,1.15-2.57,2.57-2.57s2.57,1.15,2.57,2.57c0,1.42-1.15,2.57-2.57,2.57
				S395.71,182.71,395.71,181.29z"/>
			<path class="st4" d="M385.1,181.29c0-1.42,1.15-2.57,2.57-2.57c1.42,0,2.57,1.15,2.57,2.57c0,1.42-1.15,2.57-2.57,2.57
				C386.25,183.86,385.1,182.71,385.1,181.29z"/>
		</g>
	</g>
</g>
<g id="Pictures">
	<g>
		<g>
			
				<rect x="406.62" y="104.56" transform="matrix(-1 -1.224647e-16 1.224647e-16 -1 867.7765 249.548)" class="st2" width="54.54" height="40.44"/>
			<polygon class="st4" points="406.62,125.19 415.55,117.25 430.13,132.3 441.88,124.77 461.16,144.99 406.62,144.99 			"/>
			<path class="st4" d="M443.52,115.72c0,3.44,2.79,6.23,6.23,6.23s6.23-2.79,6.23-6.23c0-3.44-2.79-6.23-6.23-6.23
				S443.52,112.28,443.52,115.72z"/>
		</g>
		<g>
			
				<rect x="374.1" y="115.58" transform="matrix(-1 -1.224647e-16 1.224647e-16 -1 802.7477 271.5918)" class="st2" width="54.54" height="40.44"/>
			<polygon class="st8" points="374.1,136.21 383.04,128.27 397.61,143.32 409.37,135.8 428.64,156.01 374.1,156.01 			"/>
			<circle class="st8" cx="417.24" cy="126.74" r="6.23"/>
		</g>
	</g>
</g>
<g id="Line_1_">
	<g>
		<line class="st1" x1="435.32" y1="446.34" x2="40.03" y2="446.34"/>
		<line class="st1" x1="458.99" y1="446.34" x2="445" y2="446.34"/>
	</g>
</g>
</svg>
