<svg xmlns="http://www.w3.org/2000/svg" width="64" height="60" viewBox="0 0 64 60">
  <g id="Group_278" data-name="Group 278" transform="translate(-261 -229)">
    <g id="Group_265" data-name="Group 265" transform="translate(-2 -47)">
      <circle id="Ellipse_35" data-name="Ellipse 35" cx="30" cy="30" r="30" transform="translate(263 276)" fill="#7d74e2" opacity="0.3"/>
      <g id="Path_758" data-name="Path 758" transform="translate(307 316)">
        <path id="Path_1" data-name="Path 1" d="M10,18a8,8,0,1,1,8-8A8.009,8.009,0,0,1,10,18Z" fill="#c41b1b"/>
        <path id="Path_2" data-name="Path 2" d="M10,4a6,6,0,1,0,6,6,6.007,6.007,0,0,0-6-6m0-4A10,10,0,1,1,0,10,10,10,0,0,1,10,0Z" fill="#fff"/>
      </g>
    </g>
    <g id="Iconly_Bold_Buy" data-name="Iconly/Bold/Buy" transform="translate(273 241.904)">
      <g id="Buy" transform="translate(2.917 2.917)">
        <path id="Buy-2" data-name="Buy" d="M22.092,26.919a2.208,2.208,0,1,1,2.216,2.247,2.238,2.238,0,0,1-2.216-2.247Zm-16.393,0a2.208,2.208,0,1,1,2.214,2.247A2.238,2.238,0,0,1,5.7,26.919ZM8.146,22.3a3.659,3.659,0,0,1-2.517-1,3.814,3.814,0,0,1-1.184-2.477L3.105,2.6.9,2.214A1.117,1.117,0,0,1,1.115,0a1.192,1.192,0,0,1,.168.013L4.759.547a1.12,1.12,0,0,1,.9,1.012l.277,3.334a.9.9,0,0,0,.889.835h19.68a2.462,2.462,0,0,1,2.055,1,3.282,3.282,0,0,1,.554,2.558l-1.385,9.762A3.765,3.765,0,0,1,24.045,22.3Zm8.437-9.955a1.106,1.106,0,0,0,1.093,1.116h4.036a1.106,1.106,0,0,0,1.093-1.116,1.094,1.094,0,0,0-1.093-1.117H17.676a1.094,1.094,0,0,0-1.093,1.121Z" fill="#695adc"/>
      </g>
    </g>
  </g>
</svg>
