<svg width="363" height="256" viewBox="0 0 363 256" fill="none" xmlns="http://www.w3.org/2000/svg">
<path d="M217.41 64.4243C225.643 58.5702 227.656 47.0386 220.689 39.7233C204.234 22.4451 183.181 10.0168 159.835 4.02212C130.551 -3.49748 99.5508 -0.408487 72.3264 12.7418C45.102 25.8921 23.4114 48.2547 11.0975 75.8675C-1.2164 103.48 -3.3585 134.561 5.05071 163.602C13.4599 192.643 31.8775 217.77 57.0404 234.53C82.2033 251.291 112.487 258.604 142.526 255.173C172.564 251.742 200.419 237.789 221.154 215.786C237.684 198.244 248.839 176.49 253.517 153.092C255.497 143.186 247.633 134.515 237.546 133.965C227.459 133.416 219.016 141.238 216.472 151.015C212.631 165.781 205.127 179.451 194.53 190.696C179.721 206.411 159.828 216.376 138.374 218.826C116.921 221.277 95.2923 216.054 77.3211 204.083C59.35 192.113 46.1962 174.167 40.1904 153.426C34.1846 132.685 35.7145 110.488 44.509 90.7673C53.3034 71.0464 68.7948 55.0752 88.2383 45.6833C107.682 36.2915 129.822 34.0853 150.737 39.4558C165.702 43.2988 179.349 50.8438 190.486 61.2729C197.86 68.178 209.177 70.2785 217.41 64.4243Z" fill="#00C9A3"/>
<path d="M136.025 184.659C99.5108 203.566 76.7037 168.512 71.9397 138.241C67.1757 107.97 81.2053 82.0223 98.6714 91.5736C119.22 102.81 107.006 153.668 130.012 138.241C199.606 91.5735 380.617 -35.1322 361.61 9.29883C361.61 9.29883 172.538 165.753 136.025 184.659Z" fill="#422F7E"/>
</svg>
