<svg xmlns="http://www.w3.org/2000/svg" width="16" height="16" viewBox="0 0 16 16">
  <path id="chat-left-text-fill" d="M16,2.092A2.048,2.048,0,0,0,14,0H2A2.048,2.048,0,0,0,0,2.092v8.37a2.048,2.048,0,0,0,2,2.092h9.586a.978.978,0,0,1,.707.306l2.853,2.985a.484.484,0,0,0,.545.114A.524.524,0,0,0,16,15.477ZM12.5,3.139a.524.524,0,0,1,0,1.046h-9a.524.524,0,0,1,0-1.046Zm0,2.616a.524.524,0,0,1,0,1.046h-9a.524.524,0,0,1,0-1.046Zm0,2.616a.524.524,0,0,1,0,1.046h-5a.524.524,0,0,1,0-1.046Z" transform="translate(0 0)" fill="#fff"/>
</svg>
